<svg id="img" xmlns="http://www.w3.org/2000/svg" width="20" height="20" viewBox="0 0 20 20" fill="none">
  <path d="M2.9165 15C2.9165 13.8215 2.9165 13.2322 3.28262 12.8661C3.64874 12.5 4.23799 12.5 5.4165 12.5H5.83317C6.61884 12.5 7.01168 12.5 7.25576 12.7441C7.49984 12.9882 7.49984 13.381 7.49984 14.1667V18.3333H2.9165V15Z" stroke="currentColor" stroke-width="1.5" stroke-linecap="round" stroke-linejoin="round"/>
  <path d="M12.5 15.8333C12.5 15.0476 12.5 14.6548 12.7441 14.4107C12.9882 14.1666 13.381 14.1666 14.1667 14.1666H14.5833C15.7618 14.1666 16.3511 14.1666 16.7172 14.5327C17.0833 14.8989 17.0833 15.4881 17.0833 16.6666V18.3333H12.5V15.8333Z" stroke="currentColor" stroke-width="1.5" stroke-linecap="round" stroke-linejoin="round"/>
  <path d="M1.6665 18.3333H18.3332" stroke="currentColor" stroke-width="1.5" stroke-linecap="round" stroke-linejoin="round"/>
  <path d="M7.5 13.3333C7.5 12.1547 7.5 11.5655 7.86612 11.1994C8.23223 10.8333 8.82149 10.8333 10 10.8333C11.1785 10.8333 11.7678 10.8333 12.1339 11.1994C12.5 11.5655 12.5 12.1547 12.5 13.3333V18.3333H7.5V13.3333Z" stroke="currentColor" stroke-width="1.5" stroke-linecap="round" stroke-linejoin="round"/>
  <path d="M10.5757 2.14802L11.1623 3.33092C11.2423 3.49558 11.4556 3.65353 11.6356 3.68377L12.6988 3.86188C13.3787 3.97613 13.5387 4.47349 13.0488 4.96412L12.2222 5.79753C12.0822 5.93867 12.0056 6.21087 12.0489 6.40578L12.2855 7.43746C12.4722 8.25406 12.0422 8.56995 11.3256 8.14317L10.3291 7.54836C10.1491 7.44082 9.85246 7.44082 9.66915 7.54836L8.67259 8.14317C7.95934 8.56995 7.52605 8.2507 7.7127 7.43746L7.94934 6.40578C7.99267 6.21087 7.91601 5.93867 7.77603 5.79753L6.94945 4.96412C6.46284 4.47349 6.61949 3.97613 7.29941 3.86188L8.36263 3.68377C8.53927 3.65353 8.75258 3.49558 8.83258 3.33092L9.41918 2.14802C9.73914 1.50616 10.2591 1.50616 10.5757 2.14802Z" stroke="currentColor" stroke-width="1.5" stroke-linecap="round" stroke-linejoin="round"/>
</svg>