<svg id="img" xmlns="http://www.w3.org/2000/svg" width="20" height="20" viewBox="0 0 20 20" fill="none">
  <path d="M12.5005 14.1666C11.8342 14.6853 10.959 15 10.0005 15C9.04195 15 8.16676 14.6853 7.50049 14.1666" stroke="currentColor" stroke-width="1.5" stroke-linecap="round"/>
  <path d="M1.95982 11.0112C1.66563 9.09683 1.51854 8.13966 1.88046 7.29111C2.24238 6.44256 3.04535 5.86199 4.65127 4.70084L5.85115 3.83329C7.8489 2.38885 8.84778 1.66663 10.0003 1.66663C11.1529 1.66663 12.1517 2.38885 14.1495 3.83329L15.3494 4.70084C16.9553 5.86199 17.7583 6.44256 18.1202 7.29111C18.4821 8.13966 18.335 9.09683 18.0408 11.0112L17.79 12.6436C17.3729 15.3574 17.1644 16.7143 16.1912 17.5238C15.2179 18.3333 13.795 18.3333 10.9493 18.3333H9.05131C6.2056 18.3333 4.78275 18.3333 3.80949 17.5238C2.83623 16.7143 2.62772 15.3574 2.21068 12.6436L1.95982 11.0112Z" stroke="currentColor" stroke-width="1.5" stroke-linejoin="round"/>
</svg>