<svg id="img" xmlns="http://www.w3.org/2000/svg" width="24" height="24" viewBox="0 0 24 24" fill="none">
  <path d="M20.8899 13V14H20.0199C19.2799 14 18.6799 14.6 18.6799 15.35V15.65C18.6799 16.4 18.0799 17 17.3299 17C16.5899 17 15.9899 16.4 15.9899 15.65V15.35C15.9899 14.6 15.3799 14 14.6399 14C13.8999 14 13.2999 14.6 13.2999 15.35V15.65C13.2999 16.4 12.6899 17 11.9499 17C11.2099 17 10.5999 16.4 10.5999 15.65V15.35C10.5999 14.6 9.99986 14 9.25986 14C8.51986 14 7.90986 14.6 7.90986 15.35V15.65C7.90986 16.4 7.30986 17 6.56986 17C5.81986 17 5.21986 16.4 5.21986 15.65V15.33C5.21986 14.59 4.62986 13.99 3.89986 13.98H3.10986V13C3.10986 11.62 4.14986 10.45 5.55986 10.11C5.83986 10.04 6.12986 10 6.43986 10H17.5599C17.8699 10 18.1599 10.04 18.4399 10.11C19.8499 10.45 20.8899 11.62 20.8899 13Z" fill="white"/>
  <path d="M18.4401 7.17V8.58C18.1501 8.52 17.8601 8.5 17.5601 8.5H6.44006C6.14006 8.5 5.85006 8.53 5.56006 8.59V7.17C5.56006 5.97 6.64006 5 7.98006 5H16.0201C17.3601 5 18.4401 5.97 18.4401 7.17Z" fill="white"/>
  <path d="M8.75 3.55002V5.01002H7.98C7.72 5.01002 7.48 5.04002 7.25 5.10002V3.55002C7.25 3.20002 7.59 2.90002 8 2.90002C8.41 2.90002 8.75 3.20002 8.75 3.55002Z" fill="white"/>
  <path d="M16.75 3.32996V5.09996C16.52 5.02996 16.28 4.99996 16.02 4.99996H15.25V3.32996C15.25 2.91996 15.59 2.57996 16 2.57996C16.41 2.57996 16.75 2.91996 16.75 3.32996Z" fill="white"/>
  <path d="M12.75 2.82V5H11.25V2.82C11.25 2.37 11.59 2 12 2C12.41 2 12.75 2.37 12.75 2.82Z" fill="white"/>
  <path d="M22 21.25C22 21.66 21.66 22 21.25 22H2.75C2.34 22 2 21.66 2 21.25C2 20.84 2.34 20.5 2.75 20.5H3.11V15.48H3.72V15.55C3.72 16.89 4.6 18.13 5.91 18.42C6.93 18.66 7.9 18.33 8.56 17.68C8.94 17.3 9.56 17.29 9.94 17.67C10.46 18.18 11.17 18.5 11.95 18.5C12.73 18.5 13.44 18.19 13.96 17.67C14.34 17.3 14.95 17.3 15.34 17.68C15.99 18.33 16.96 18.66 17.99 18.42C19.3 18.13 20.18 16.89 20.18 15.55V15.5H20.89V20.5H21.25C21.66 20.5 22 20.84 22 21.25Z" fill="white"/>
</svg>