<svg id="img" xmlns="http://www.w3.org/2000/svg" width="16" height="16" viewBox="0 0 16 16" fill="none">
  <path d="M9.38263 2.59034C9.87942 2.0521 10.1278 1.78297 10.3918 1.62599C11.0287 1.24721 11.8129 1.23543 12.4604 1.59492C12.7288 1.74391 12.9848 2.00545 13.4969 2.52855C14.0089 3.05164 14.265 3.31319 14.4108 3.58732C14.7627 4.24879 14.7512 5.0499 14.3804 5.70051C14.2267 5.97015 13.9633 6.22389 13.4364 6.73138L7.16725 12.7696C6.16875 13.7313 5.6695 14.2122 5.04554 14.4559C4.42158 14.6996 3.73563 14.6816 2.36374 14.6458L2.17708 14.6409C1.75943 14.63 1.55061 14.6245 1.42922 14.4867C1.30783 14.349 1.3244 14.1363 1.35755 13.7108L1.37555 13.4798C1.46883 12.2824 1.51548 11.6837 1.7493 11.1455C1.98312 10.6073 2.38645 10.1704 3.19311 9.29637L9.38263 2.59034Z" stroke="currentColor" stroke-width="1.5" stroke-linejoin="round"/>
  <path d="M8.66699 2.66675L13.3337 7.33341" stroke="currentColor" stroke-width="1.5" stroke-linejoin="round"/>
  <path d="M9.3335 14.6667L14.6668 14.6667" stroke="currentColor" stroke-width="1.5" stroke-linecap="round" stroke-linejoin="round"/>
</svg>