<svg id="img" xmlns="http://www.w3.org/2000/svg" width="20" height="21" viewBox="0 0 20 21" fill="none">
  <path d="M7.50008 18.8333H12.5001C16.6667 18.8333 18.3334 17.1667 18.3334 13V7.99999C18.3334 3.83332 16.6667 2.16666 12.5001 2.16666H7.50008C3.33341 2.16666 1.66675 3.83332 1.66675 7.99999V13C1.66675 17.1667 3.33341 18.8333 7.50008 18.8333Z" stroke="#262626" stroke-width="1.5" stroke-linecap="round" stroke-linejoin="round"/>
  <path d="M7.49992 8.83333C8.42039 8.83333 9.16659 8.08714 9.16659 7.16667C9.16659 6.24619 8.42039 5.5 7.49992 5.5C6.57944 5.5 5.83325 6.24619 5.83325 7.16667C5.83325 8.08714 6.57944 8.83333 7.49992 8.83333Z" stroke="#262626" stroke-width="1.5" stroke-linecap="round" stroke-linejoin="round"/>
  <path d="M2.2251 16.2917L6.33343 13.5333C6.99176 13.0917 7.94176 13.1417 8.53343 13.65L8.80843 13.8917C9.45843 14.45 10.5084 14.45 11.1584 13.8917L14.6251 10.9167C15.2751 10.3583 16.3251 10.3583 16.9751 10.9167L18.3334 12.0833" stroke="#262626" stroke-width="1.5" stroke-linecap="round" stroke-linejoin="round"/>
</svg>