<svg id="img" xmlns="http://www.w3.org/2000/svg" width="20" height="20" viewBox="0 0 20 20" fill="none">
  <path d="M18.3333 10C18.3333 5.39765 14.6023 1.66669 9.99996 1.66669C5.39759 1.66669 1.66663 5.39765 1.66663 10C1.66663 14.6024 5.39759 18.3334 9.99996 18.3334C10.7014 18.3334 11.6666 18.4303 11.6666 17.5C11.6666 16.9925 11.4027 16.601 11.1404 16.212C10.7568 15.6429 10.3769 15.0795 10.8333 14.1667C11.3888 13.0556 12.3148 13.0556 13.7345 13.0556C14.4444 13.0556 15.2778 13.0556 16.25 12.9167C18.0008 12.6666 18.3333 11.5904 18.3333 10Z" stroke="#5F6D7E" stroke-width="1.5"/>
  <path d="M5.83325 12.5021L5.84193 12.4998" stroke="#5F6D7E" stroke-width="2" stroke-linecap="round" stroke-linejoin="round"/>
  <circle cx="7.91663" cy="7.08337" r="1.25" stroke="#5F6D7E" stroke-width="1.5"/>
  <circle cx="13.75" cy="7.91669" r="1.25" stroke="#5F6D7E" stroke-width="1.5"/>
</svg>