<svg id="img" xmlns="http://www.w3.org/2000/svg" width="14" height="16" viewBox="0 0 14 16" fill="none">
  <path d="M12 3.66675L11.5868 10.3501C11.4813 12.0577 11.4285 12.9115 11.0005 13.5253C10.7889 13.8288 10.5164 14.0849 10.2005 14.2774C9.56141 14.6667 8.70599 14.6667 6.99516 14.6667C5.28208 14.6667 4.42554 14.6667 3.78604 14.2767C3.46987 14.0839 3.19733 13.8273 2.98579 13.5233C2.55792 12.9085 2.5063 12.0535 2.40307 10.3435L2 3.66675" stroke="currentColor" stroke-width="1.5" stroke-linecap="round"/>
  <path d="M1 3.66671H13M9.70382 3.66671L9.2487 2.72786C8.94638 2.10421 8.79522 1.79239 8.53448 1.59791C8.47664 1.55477 8.4154 1.5164 8.35135 1.48317C8.06261 1.33337 7.71608 1.33337 7.02302 1.33337C6.31255 1.33337 5.95732 1.33337 5.66379 1.48945C5.59873 1.52405 5.53666 1.56397 5.4782 1.60882C5.21443 1.81117 5.06709 2.13441 4.7724 2.78088L4.36862 3.66671" stroke="currentColor" stroke-width="1.5" stroke-linecap="round"/>
  <path d="M5.3335 11L5.3335 7" stroke="currentColor" stroke-width="1.5" stroke-linecap="round"/>
  <path d="M8.6665 11L8.6665 7" stroke="currentColor" stroke-width="1.5" stroke-linecap="round"/>
</svg>