<svg id="img" xmlns="http://www.w3.org/2000/svg" width="14" height="14" viewBox="0 0 14 14" fill="none">
  <path d="M3.10417 5.64854C4.51215 3.15715 5.21613 1.91146 6.18216 1.5908C6.7136 1.41439 7.28607 1.41439 7.81752 1.5908C8.78354 1.91146 9.48753 3.15715 10.8955 5.64854C12.3035 8.13992 13.0075 9.38561 12.7963 10.4006C12.6801 10.959 12.3939 11.4655 11.9786 11.8475C11.2238 12.5418 9.81579 12.5418 6.99984 12.5418C4.18388 12.5418 2.7759 12.5418 2.02107 11.8475C1.6058 11.4655 1.31956 10.959 1.20338 10.4006C0.992201 9.38561 1.69619 8.13992 3.10417 5.64854Z" stroke="currentColor" stroke-width="1.5"/>
  <path d="M6.995 9.3335H7.00024" stroke="currentColor" stroke-width="2" stroke-linecap="round" stroke-linejoin="round"/>
  <path d="M7 7.5835L7 5.25016" stroke="currentColor" stroke-width="1.5" stroke-linecap="round" stroke-linejoin="round"/>
</svg>