<svg id="img" width="24" height="18" viewBox="0 0 24 18" fill="none" xmlns="http://www.w3.org/2000/svg">
<g id="Text input">
<path id="Exclude" fill-rule="evenodd" clip-rule="evenodd" d="M22.7227 1.4991C23.0951 1.87387 23.3625 2.33986 23.4982 2.85045C24 4.73499 24 8.66499 24 8.66499C24 8.66499 24 12.595 23.4982 14.4795C23.3625 14.9901 23.0951 15.4561 22.7227 15.8309C22.3503 16.2056 21.8861 16.476 21.3764 16.615C19.5 17.1195 12 17.1195 12 17.1195C12 17.1195 4.5 17.1195 2.62364 16.615C2.11393 16.476 1.64966 16.2056 1.27729 15.8309C0.904916 15.4561 0.637506 14.9901 0.501818 14.4795C0 12.595 0 8.66499 0 8.66499C0 8.66499 0 4.73499 0.501818 2.85045C0.637506 2.33986 0.904916 1.87387 1.27729 1.4991C1.64966 1.12434 2.11393 0.85395 2.62364 0.714995C4.5 0.210449 12 0.210449 12 0.210449C12 0.210449 19.5 0.210449 21.3764 0.714995C21.8861 0.85395 22.3503 1.12434 22.7227 1.4991ZM9.54541 5.09644V12.2337L15.8181 8.66507L9.54541 5.09644Z" fill="#262626"/>
</g>
</svg>
