<svg id="img" xmlns="http://www.w3.org/2000/svg" width="20" height="16" viewBox="0 0 20 16" fill="none">
  <path d="M9.1665 14.6667H8.74984C5.61769 14.6667 4.05162 14.6667 3.00605 13.841C2.83882 13.7089 2.68416 13.5634 2.54384 13.406C1.6665 12.4219 1.6665 10.9479 1.6665 8.00004C1.6665 5.05214 1.6665 3.57818 2.54384 2.59412C2.68416 2.43673 2.83882 2.29117 3.00605 2.1591C4.05162 1.33337 5.61769 1.33337 8.74984 1.33337H11.2498C14.382 1.33337 15.9481 1.33337 16.9936 2.1591C17.1609 2.29117 17.3155 2.43673 17.4558 2.59412C18.2463 3.48074 18.3246 4.76503 18.3323 7.16671" stroke="currentColor" stroke-width="1.5" stroke-linecap="round" stroke-linejoin="round"/>
  <path d="M1.6665 5.5H18.3332" stroke="currentColor" stroke-width="1.5" stroke-linejoin="round"/>
  <path d="M11.6665 13.0001C11.6665 13.0001 12.4998 13.0001 13.3332 14.6667C13.3332 14.6667 15.9802 10.5001 18.3332 9.66675" stroke="currentColor" stroke-width="1.5" stroke-linecap="round" stroke-linejoin="round"/>
</svg>