<svg id="img" xmlns="http://www.w3.org/2000/svg" width="17" height="14" viewBox="0 0 17 14" fill="none">
  <path d="M14.3494 11C14.8489 11 15.2462 10.6856 15.603 10.2461C16.3333 9.3463 15.1342 8.62723 14.6769 8.27507C14.212 7.91708 13.6929 7.71428 13.1667 7.66667M12.5 6.33333C13.4205 6.33333 14.1667 5.58714 14.1667 4.66667C14.1667 3.74619 13.4205 3 12.5 3" stroke="currentColor" stroke-width="1.5" stroke-linecap="round"/>
  <path d="M2.65096 11C2.15143 11 1.7541 10.6856 1.39736 10.2461C0.667051 9.3463 1.86611 8.62723 2.32342 8.27507C2.78831 7.91708 3.30738 7.71428 3.83366 7.66667M4.16699 6.33333C3.24652 6.33333 2.50033 5.58714 2.50033 4.66667C2.50033 3.74619 3.24652 3 4.16699 3" stroke="currentColor" stroke-width="1.5" stroke-linecap="round"/>
  <path d="M5.88953 9.07404C5.20834 9.49525 3.42232 10.3553 4.51013 11.4315C5.04151 11.9573 5.63334 12.3333 6.37741 12.3333H10.6232C11.3673 12.3333 11.9591 11.9573 12.4905 11.4315C13.5783 10.3553 11.7923 9.49525 11.1111 9.07404C9.51375 8.08632 7.4869 8.08632 5.88953 9.07404Z" stroke="currentColor" stroke-width="1.5" stroke-linecap="round" stroke-linejoin="round"/>
  <path d="M10.8337 3.99996C10.8337 5.28862 9.78899 6.33329 8.50033 6.33329C7.21166 6.33329 6.16699 5.28862 6.16699 3.99996C6.16699 2.7113 7.21166 1.66663 8.50033 1.66663C9.78899 1.66663 10.8337 2.7113 10.8337 3.99996Z" stroke="currentColor" stroke-width="1.5"/>
</svg>