<svg id="img" xmlns="http://www.w3.org/2000/svg" width="13" height="12" viewBox="0 0 13 12" fill="none">
  <path d="M3.81301 0H8.85301C10.773 0 12.333 1.56 12.333 3.48V8.52C12.333 9.44295 11.9664 10.3281 11.3137 10.9807C10.6611 11.6334 9.77596 12 8.85301 12H3.81301C1.89301 12 0.333008 10.44 0.333008 8.52V3.48C0.333008 2.55705 0.69965 1.6719 1.35228 1.01927C2.0049 0.366642 2.89005 0 3.81301 0ZM3.69301 1.2C3.12014 1.2 2.57074 1.42757 2.16566 1.83265C1.76058 2.23773 1.53301 2.78713 1.53301 3.36V8.64C1.53301 9.834 2.49901 10.8 3.69301 10.8H8.97301C9.54588 10.8 10.0953 10.5724 10.5004 10.1674C10.9054 9.76227 11.133 9.21287 11.133 8.64V3.36C11.133 2.166 10.167 1.2 8.97301 1.2H3.69301ZM9.48301 2.1C9.68192 2.1 9.87269 2.17902 10.0133 2.31967C10.154 2.46032 10.233 2.65109 10.233 2.85C10.233 3.04891 10.154 3.23968 10.0133 3.38033C9.87269 3.52098 9.68192 3.6 9.48301 3.6C9.2841 3.6 9.09333 3.52098 8.95268 3.38033C8.81203 3.23968 8.73301 3.04891 8.73301 2.85C8.73301 2.65109 8.81203 2.46032 8.95268 2.31967C9.09333 2.17902 9.2841 2.1 9.48301 2.1ZM6.33301 3C7.12866 3 7.89172 3.31607 8.45433 3.87868C9.01694 4.44129 9.33301 5.20435 9.33301 6C9.33301 6.79565 9.01694 7.55871 8.45433 8.12132C7.89172 8.68393 7.12866 9 6.33301 9C5.53736 9 4.7743 8.68393 4.21169 8.12132C3.64908 7.55871 3.33301 6.79565 3.33301 6C3.33301 5.20435 3.64908 4.44129 4.21169 3.87868C4.7743 3.31607 5.53736 3 6.33301 3ZM6.33301 4.2C5.85562 4.2 5.39778 4.38964 5.06022 4.72721C4.72265 5.06477 4.53301 5.52261 4.53301 6C4.53301 6.47739 4.72265 6.93523 5.06022 7.27279C5.39778 7.61036 5.85562 7.8 6.33301 7.8C6.8104 7.8 7.26824 7.61036 7.6058 7.27279C7.94337 6.93523 8.13301 6.47739 8.13301 6C8.13301 5.52261 7.94337 5.06477 7.6058 4.72721C7.26824 4.38964 6.8104 4.2 6.33301 4.2Z" fill="#FFF2F0"/>
</svg>