<svg id="img" width="24" height="25" viewBox="0 0 24 25" fill="none" xmlns="http://www.w3.org/2000/svg">
<g id="mdi:instagram">
<path id="Vector" d="M7.8 2.66504H16.2C19.4 2.66504 22 5.26504 22 8.46504V16.865C22 18.4033 21.3889 19.8785 20.3012 20.9663C19.2135 22.054 17.7383 22.665 16.2 22.665H7.8C4.6 22.665 2 20.065 2 16.865V8.46504C2 6.92678 2.61107 5.45153 3.69878 4.36382C4.78649 3.27611 6.26174 2.66504 7.8 2.66504ZM7.6 4.66504C6.64522 4.66504 5.72955 5.04432 5.05442 5.71945C4.37928 6.39459 4 7.31026 4 8.26504V17.065C4 19.055 5.61 20.665 7.6 20.665H16.4C17.3548 20.665 18.2705 20.2858 18.9456 19.6106C19.6207 18.9355 20 18.0198 20 17.065V8.26504C20 6.27504 18.39 4.66504 16.4 4.66504H7.6ZM17.25 6.16504C17.5815 6.16504 17.8995 6.29674 18.1339 6.53116C18.3683 6.76558 18.5 7.08352 18.5 7.41504C18.5 7.74656 18.3683 8.0645 18.1339 8.29892C17.8995 8.53334 17.5815 8.66504 17.25 8.66504C16.9185 8.66504 16.6005 8.53334 16.3661 8.29892C16.1317 8.0645 16 7.74656 16 7.41504C16 7.08352 16.1317 6.76558 16.3661 6.53116C16.6005 6.29674 16.9185 6.16504 17.25 6.16504ZM12 7.66504C13.3261 7.66504 14.5979 8.19182 15.5355 9.12951C16.4732 10.0672 17 11.339 17 12.665C17 13.9911 16.4732 15.2629 15.5355 16.2006C14.5979 17.1383 13.3261 17.665 12 17.665C10.6739 17.665 9.40215 17.1383 8.46447 16.2006C7.52678 15.2629 7 13.9911 7 12.665C7 11.339 7.52678 10.0672 8.46447 9.12951C9.40215 8.19182 10.6739 7.66504 12 7.66504ZM12 9.66504C11.2044 9.66504 10.4413 9.98111 9.87868 10.5437C9.31607 11.1063 9 11.8694 9 12.665C9 13.4607 9.31607 14.2238 9.87868 14.7864C10.4413 15.349 11.2044 15.665 12 15.665C12.7956 15.665 13.5587 15.349 14.1213 14.7864C14.6839 14.2238 15 13.4607 15 12.665C15 11.8694 14.6839 11.1063 14.1213 10.5437C13.5587 9.98111 12.7956 9.66504 12 9.66504Z" fill="#262626"/>
</g>
</svg>
