<svg id="img" xmlns="http://www.w3.org/2000/svg" width="37" height="36" viewBox="0 0 37 36" fill="none">
  <path d="M35.1228 19.8844C35.1414 20.3675 35.1589 20.8507 35.1787 21.3338C35.1954 21.743 35.214 22.1522 35.2329 22.5613C35.26 23.1497 35.2878 23.7381 35.3161 24.3264C35.3336 24.6894 35.3398 25.0535 35.3729 25.4151C35.4873 26.6629 35.4507 27.9135 35.45 29.1632C35.4497 29.6695 35.4181 30.1758 35.396 30.6819C35.383 30.9804 35.3673 31.279 35.3415 31.5766C35.2843 32.2346 35.2862 32.9035 35.0878 33.539C35.0134 33.7773 34.8536 33.9927 34.7124 34.2048C34.5155 34.5004 34.2792 34.7602 33.9739 34.953C33.6569 35.1532 33.3041 35.2334 32.9432 35.2397C32.0574 35.2551 31.1712 35.2508 30.2852 35.2422C29.8282 35.2378 29.3712 35.2116 28.9145 35.1872C28.5135 35.1658 28.1126 35.1384 27.7124 35.1044C27.1263 35.0545 26.541 34.9952 25.9552 34.9421C25.6144 34.9112 25.2728 34.889 24.9323 34.8549C24.5333 34.815 24.1348 34.7697 23.7368 34.7203C23.5247 34.6939 23.5254 34.6878 23.5254 34.4711C23.5254 33.5929 23.528 32.7147 23.5226 31.8365C23.5218 31.7053 23.5553 31.6643 23.6899 31.6639C24.3958 31.6615 25.1018 31.6528 25.8076 31.6379C26.3565 31.6262 26.9052 31.6043 27.4538 31.5828C27.8236 31.5683 28.1936 31.553 28.5628 31.5265C29.1178 31.4866 29.6729 31.4444 30.2265 31.3885C30.6388 31.3469 31.0489 31.2838 31.4595 31.2272C31.8675 31.171 32.0742 30.8947 32.1876 30.5292C32.3273 30.0787 32.3835 29.6143 32.3956 29.1437C32.4035 28.8397 32.4139 28.5357 32.4227 28.2317C32.424 28.1876 32.4229 28.1435 32.4229 28.0942C32.2982 28.2716 32.1851 28.4415 32.0628 28.6045C31.8123 28.9381 31.4634 29.1423 31.0936 29.3045C30.6208 29.5119 30.1185 29.6095 29.6046 29.6423C29.3857 29.6563 29.1662 29.6649 28.9468 29.6695C28.4063 29.681 27.8656 29.6945 27.3249 29.696C26.9588 29.697 26.5921 29.6884 26.2265 29.6675C25.7346 29.6395 25.2421 29.6089 24.7524 29.5555C23.9327 29.466 23.1432 29.26 22.4199 28.8477C21.949 28.5793 21.5643 28.2099 21.2351 27.7782C20.835 27.2536 20.6317 26.6482 20.5015 26.0114C20.4896 25.9533 20.4906 25.8924 20.4765 25.812C20.4617 25.5621 20.4552 25.3331 20.4509 25.1041C20.4496 25.0357 20.4543 24.9672 20.464 24.8925C20.4793 24.8653 20.4932 24.8444 20.4933 24.8235C20.4949 24.503 20.4956 24.1826 20.4935 23.8621C20.4933 23.8282 20.4734 23.7943 20.4638 23.7478C20.4673 23.6239 20.4696 23.5126 20.4777 23.3917C20.4795 23.2503 20.4754 23.1187 20.4732 22.9767C20.4736 22.8152 20.4723 22.6641 20.4784 22.5043C20.5082 22.2118 20.519 21.9264 20.5556 21.6444C20.6287 21.0806 20.7058 20.5169 20.7999 19.9564C20.9243 19.2145 21.0706 18.4764 21.1974 17.7349C21.2201 17.602 21.2729 17.5741 21.3946 17.5759C22.2746 17.5895 23.1547 17.5981 24.0348 17.6054C24.4569 17.6089 24.8792 17.6021 25.3014 17.6079C25.477 17.6103 25.6523 17.6334 25.8334 17.6476C25.8301 17.6778 25.83 17.6958 25.826 17.7129C25.6512 18.4642 25.4753 19.2153 25.3011 19.9667C25.1279 20.7145 25.0106 21.4719 24.9619 22.2377C24.9332 22.6882 24.9191 23.1417 24.9368 23.5924C24.9511 23.9572 24.9938 24.3266 25.0763 24.6816C25.1694 25.0829 25.4161 25.3922 25.8015 25.5655C26.3117 25.7948 26.8611 25.8061 27.4016 25.805C27.8321 25.804 28.2628 25.7259 28.6928 25.6764C29.1753 25.6208 29.6454 25.5108 30.099 25.3337C30.3909 25.2198 30.5978 25.0381 30.6305 24.6987C30.6595 24.3975 30.7193 24.0987 30.7388 23.7972C30.7773 23.2005 30.8107 22.6028 30.8219 22.0051C30.8357 21.2615 30.825 20.5174 30.8356 19.7705C30.8765 19.7591 30.9074 19.7415 30.9366 19.7439C31.1401 19.7603 31.343 19.7833 31.5465 19.7995C31.9043 19.8281 32.262 19.8604 32.6204 19.8776C32.8901 19.8906 33.1609 19.8867 33.431 19.883C33.9382 19.8761 34.4453 19.8629 34.9524 19.8554C35.0091 19.8546 35.066 19.8742 35.1228 19.8844Z" fill="#13355B"/>
  <path d="M20.4711 22.5129C20.4723 22.664 20.4736 22.8152 20.471 22.9894C20.4687 23.1421 20.4704 23.2717 20.472 23.4013C20.4696 23.5126 20.4673 23.6239 20.4544 23.7553C20.448 24.1499 20.4521 24.5243 20.4562 24.8988C20.4543 24.9672 20.4496 25.0357 20.4509 25.1041C20.4552 25.3331 20.4617 25.5621 20.4694 25.8035C20.4368 26.3849 20.4021 26.9537 20.3673 27.5247C19.1685 27.5896 17.9845 27.6188 16.8047 27.8783C16.8261 27.7113 16.8454 27.5613 16.8645 27.4114C16.8995 27.1376 16.9467 26.8647 16.9668 26.5897C17.0037 26.0835 17.0362 25.5764 17.0485 25.0692C17.058 24.6736 17.0355 24.2772 17.024 23.8812C17.0196 23.7306 17.0084 23.5801 16.9967 23.4298C16.961 22.9711 16.9358 22.5112 16.8837 22.0544C16.8174 21.4727 16.7465 20.8915 16.5765 20.3264C16.486 20.0255 16.2747 19.888 16.0004 19.8294C15.7814 19.7826 15.5559 19.762 15.3322 19.7436C15.1055 19.7249 14.8762 19.7035 14.6501 19.7175C14.0274 19.756 13.4014 19.7879 12.81 20.0194C12.674 20.0727 12.5385 20.1342 12.4156 20.2123C12.2309 20.3297 12.2092 20.5399 12.1796 20.7307C12.1228 21.0974 12.083 21.4669 12.0403 21.8357C12.0246 21.9715 12.0182 22.1087 12.0117 22.2454C12.0006 22.479 11.9986 22.7132 11.9826 22.9464C11.8932 24.2494 11.935 25.5541 11.9315 26.8581C11.9304 27.27 11.9653 27.6819 11.9834 28.0938C11.9847 28.125 11.9835 28.1562 11.9835 28.1863C11.7923 28.2008 11.6123 28.2234 11.4319 28.2265C10.6858 28.2395 9.93951 28.2485 9.19326 28.2539C9.07244 28.2548 8.95144 28.23 8.81571 28.2155C8.81571 28.17 8.81571 28.1206 8.81571 28.0713C8.81571 27.452 8.81929 26.8327 8.81471 26.2134C8.80998 25.573 8.80513 24.9324 8.78546 24.2923C8.77185 23.8497 8.7443 23.4067 8.70259 22.9658C8.64865 22.3956 8.55532 21.8293 8.30889 21.3069C8.16084 20.9931 7.99081 20.6585 7.62617 20.5678C7.38381 20.5075 7.10736 20.5065 6.86173 20.5564C6.38741 20.653 5.91915 20.789 5.45825 20.9393C5.21982 21.017 4.99742 21.1514 4.77727 21.277C4.59726 21.3798 4.59511 21.5802 4.57572 21.7577C4.53226 22.1555 4.49903 22.5543 4.46421 22.953C4.4511 23.1031 4.4444 23.2539 4.436 23.4044C4.41714 23.7423 4.4 24.0803 4.38037 24.4182C4.36341 24.71 4.34276 25.0016 4.32595 25.2934C4.30623 25.6359 4.29224 25.9788 4.26962 26.3211C4.24619 26.6757 4.21853 27.0301 4.18304 27.3836C4.17949 27.4189 4.11102 27.4715 4.06907 27.4753C3.77999 27.5012 3.4902 27.5234 3.20019 27.5331C2.73877 27.5485 2.27683 27.5655 1.81545 27.5585C1.46318 27.5532 1.11144 27.5119 0.744632 27.4855C0.744632 27.4256 0.745741 27.3761 0.744454 27.3267C0.735602 26.9867 0.729647 26.6466 0.716126 26.3068C0.701936 25.9502 0.681422 25.5938 0.661714 25.2374C0.63521 24.7581 0.608544 24.2789 0.578728 23.7998C0.553785 23.399 0.525137 22.9984 0.496465 22.5979C0.460651 22.0976 0.424026 21.5973 0.386041 21.0972C0.360171 20.7565 0.331136 20.4161 0.303932 20.0756C0.266926 19.6124 0.230504 19.1491 0.193476 18.6859C0.166256 18.3453 0.141195 18.0046 0.110191 17.6644C0.0767971 17.298 0.0374272 16.9322 0.00127754 16.566C-0.00137748 16.5391 0.000929464 16.5117 0.000929464 16.4776C0.239792 16.4559 0.473014 16.4346 0.706237 16.4134C1.11125 16.3765 1.51617 16.3385 1.92137 16.3038C2.00342 16.2968 2.08656 16.3014 2.16916 16.3027C2.76391 16.3116 3.35872 16.318 3.95337 16.3315C4.23997 16.338 4.52627 16.3579 4.81614 16.3719C4.72981 16.9551 4.64305 17.5413 4.55777 18.1175C4.87741 17.9033 5.19073 17.6798 5.51703 17.4776C6.05562 17.1438 6.62473 16.8888 7.25474 16.7683C7.79124 16.6657 8.32977 16.6408 8.86874 16.669C9.38689 16.6961 9.86714 16.8754 10.2741 17.2068C10.6334 17.4995 10.9749 17.8144 11.334 18.1281C11.6935 17.5609 12.1994 17.1422 12.8378 16.8573C12.9349 16.8305 13.0125 16.8063 13.0875 16.7756C13.7478 16.5049 14.4456 16.4371 15.1464 16.4171C15.6979 16.4014 16.2512 16.4215 16.8029 16.4458C17.0984 16.4589 17.3954 16.4973 17.6857 16.5551C18.1602 16.6497 18.6042 16.8272 18.9922 17.1292C19.0349 17.1624 19.0946 17.1736 19.1498 17.2034C19.474 17.4961 19.6374 17.8746 19.7803 18.2668C20.1513 19.2849 20.2957 20.3492 20.4096 21.4186C20.4483 21.7814 20.4516 22.148 20.4711 22.5129Z" fill="#FFCA08"/>
  <path d="M19.1464 17.1951C19.0946 17.1736 19.0349 17.1624 18.9922 17.1292C18.6042 16.8272 18.1602 16.6497 17.6857 16.5551C17.3954 16.4973 17.0984 16.4589 16.8029 16.4458C16.2512 16.4215 15.6979 16.4014 15.1464 16.4171C14.4456 16.4371 13.7478 16.5049 13.0875 16.7756C13.0125 16.8063 12.9349 16.8305 12.8479 16.8553C12.7005 16.7212 12.5572 16.5956 12.4289 16.456C12.3014 16.3173 12.1888 16.1646 12.075 16.0044C12.0589 15.9433 12.0436 15.8917 12.015 15.8492C11.7684 15.4837 11.5588 15.1018 11.5005 14.6552C11.4714 14.4322 11.4461 14.2083 11.4316 13.984C11.4002 13.4985 11.3794 13.0124 11.3484 12.5269C11.3413 12.4163 11.3102 12.3073 11.292 12.1846C11.3022 11.1966 11.2622 10.2201 11.3779 9.24821C11.4144 8.94113 11.441 8.63178 11.4985 8.32854C11.5979 7.80403 11.7054 7.27988 11.9293 6.79C11.9293 6.79 11.9289 6.79147 11.9365 6.78887C11.9559 6.76912 11.9676 6.75197 11.9838 6.72655C12.1821 6.49926 12.4068 6.32248 12.677 6.208C12.9214 6.16713 13.165 6.12124 13.4103 6.08672C13.6878 6.04765 13.966 6.00821 14.2453 5.98778C14.7401 5.95159 15.2358 5.9299 15.7311 5.90159C15.8718 5.89355 16.0123 5.8773 16.1531 5.87554C17.0557 5.86429 17.9584 5.84705 18.861 5.84994C19.4636 5.85187 20.0662 5.88362 20.6688 5.9025C20.9426 5.91107 21.2164 5.91916 21.49 5.93037C21.9091 5.94753 22.3283 5.96215 22.7469 5.98744C23.0683 6.00685 23.3891 6.03806 23.7096 6.06928C24.3926 6.13579 25.0757 6.20719 25.7367 6.40404C25.9206 6.45882 26.1046 6.53343 26.268 6.63317C26.4662 6.75418 26.5742 6.96562 26.6608 7.17453C26.886 7.7178 27.0013 8.29078 27.0788 8.87188C27.1113 9.11558 27.1376 9.36013 27.1775 9.62432C27.1885 9.73174 27.1866 9.81919 27.1892 9.90651C27.196 10.1337 27.2048 10.3609 27.2062 10.5977C27.1963 10.7684 27.1888 10.9296 27.1907 11.0906C27.1926 11.2464 27.2042 11.4021 27.2136 11.5707C27.1962 12.0293 27.1768 12.475 27.1483 12.9272C27.1182 13.1335 27.1081 13.3351 27.074 13.5324C26.9994 13.9656 26.9243 14.3994 26.8279 14.828C26.7016 15.3895 26.5691 15.9511 26.2961 16.4651C26.2024 16.6415 26.0717 16.7732 25.8645 16.8014C25.5826 16.8399 25.301 16.8826 25.018 16.9108C24.6656 16.9458 24.3122 16.9711 23.9589 16.9947C23.4913 17.0258 23.0234 17.0534 22.5554 17.0783C22.1457 17.1 21.7358 17.119 21.3258 17.1335C20.9466 17.147 20.5671 17.152 20.1878 17.1625C19.8406 17.1721 19.4935 17.1841 19.1464 17.1951ZM19.2932 14.9435C19.6093 14.916 19.9256 14.8896 20.2417 14.8606C20.7247 14.8163 21.1919 14.6999 21.6431 14.5249C22.0376 14.3719 22.3517 14.1176 22.439 13.6812C22.5208 13.2722 22.5848 12.8559 22.6091 12.4399C22.6333 12.0277 22.5982 11.612 22.5889 11.1979C22.5782 10.7225 22.5082 10.2557 22.3955 9.79438C22.2802 9.3226 22.0315 8.97858 21.5354 8.86754C21.2371 8.80075 20.9402 8.72211 20.6385 8.67771C20.2225 8.6165 19.8035 8.56547 19.384 8.54189C18.9801 8.5192 18.574 8.53367 18.1689 8.53816C17.9089 8.54104 17.6487 8.54942 17.3892 8.56608C17.0498 8.58788 16.7106 8.61556 16.3722 8.64954C16.066 8.68029 15.8264 8.80386 15.6994 9.11629C15.5374 9.51475 15.4802 9.93239 15.4599 10.3532C15.4424 10.7152 15.4656 11.08 15.4838 11.4429C15.5025 11.8171 15.5277 12.1916 15.5665 12.5642C15.6118 12.9982 15.6692 13.4311 15.7321 13.8629C15.7768 14.1701 15.9005 14.4305 16.222 14.5376C16.3199 14.5702 16.4209 14.5928 16.5204 14.6202C17.0971 14.7787 17.6876 14.8574 18.2805 14.9119C18.6074 14.9419 18.9377 14.9342 19.2932 14.9435Z" fill="#0AAE8B"/>
  <path d="M12.6801 6.19933C12.4068 6.32248 12.1821 6.49926 11.9744 6.72752C11.9499 6.75499 11.9394 6.77323 11.9289 6.79147C11.9289 6.79147 11.9285 6.78983 11.9196 6.78611C11.8508 6.82236 11.7893 6.85995 11.7314 6.90267C11.0907 7.37603 10.4531 7.85379 9.80777 8.32063C9.69838 8.39976 9.68507 8.47013 9.72467 8.58509C9.8973 9.08626 10.0488 9.59551 10.2393 10.0896C10.4481 10.6309 10.6803 11.164 10.9254 11.6898C11.0119 11.8755 11.1666 12.0292 11.2901 12.1975C11.3102 12.3073 11.3413 12.4163 11.3484 12.5269C11.3794 13.0124 11.4002 13.4985 11.4316 13.984C11.4461 14.2083 11.4714 14.4322 11.5005 14.6552C11.5588 15.1018 11.7684 15.4837 12.015 15.8492C12.0436 15.8917 12.0589 15.9433 12.0722 15.9952C11.6518 16.0356 11.24 16.0835 10.8269 16.1035C10.4632 16.1212 10.0979 16.1076 9.73334 16.1075C9.7197 16.1075 9.70394 16.1086 9.69274 16.1025C9.38038 15.9325 9.05853 15.7776 8.75894 15.5871C8.3564 15.3313 8.20088 14.8973 8.04978 14.4736C7.80998 13.8012 7.58033 13.125 7.35448 12.4476C7.1475 11.8269 6.95131 11.2026 6.74995 10.5799C6.74329 10.5593 6.73208 10.5402 6.71753 10.5085C6.27052 10.8053 5.83138 11.0978 5.39121 11.3888C5.20866 11.5094 5.02005 11.6213 4.84298 11.7495C4.79971 11.7808 4.76975 11.8604 4.76954 11.918C4.76535 13.0826 4.7664 14.2473 4.7664 15.4119C4.7664 15.4709 4.7664 15.5299 4.7664 15.5942C4.51809 15.6186 4.28377 15.6426 4.04924 15.6643C3.65058 15.7013 3.2519 15.7382 2.85301 15.7726C2.59882 15.7945 2.344 15.8091 2.08988 15.8316C1.71386 15.865 1.33833 15.904 0.962325 15.9375C0.795703 15.9524 0.628414 15.9596 0.453408 15.9709C0.453408 15.7301 0.452801 15.5058 0.454099 15.2815C0.454281 15.2499 0.467452 15.2185 0.468385 15.1868C0.478556 14.8415 0.484748 14.4961 0.497451 14.1509C0.513006 13.7282 0.533121 13.3057 0.552398 12.8832C0.569781 12.5021 0.588746 12.1212 0.60692 11.7402C0.634732 11.1572 0.662545 10.5742 0.690201 9.99115C0.708492 9.60555 0.729566 9.22006 0.743931 8.83431C0.76517 8.26395 0.781954 7.69342 0.79985 7.12294C0.809813 6.80539 0.82383 6.48783 0.826307 6.17019C0.837685 4.7111 0.84893 3.252 0.853094 1.79288C0.85462 1.25812 0.836391 0.723296 0.827388 0.188497C0.826554 0.138949 0.827277 0.0893735 0.827277 0C2.01315 0.267446 3.20627 0.231391 4.4083 0.372C4.4083 1.70794 4.4083 3.05044 4.4083 4.39294C4.4083 5.73686 4.4083 7.08078 4.4083 8.45287C4.66901 8.28783 4.91203 8.13832 5.15069 7.98207C5.80677 7.55252 6.46579 7.12728 7.11453 6.68672C7.66851 6.31051 8.22097 5.93025 8.75369 5.52461C9.30495 5.10484 9.83172 4.65247 10.3689 4.21398C10.429 4.16492 10.4818 4.10412 10.5477 4.06574C10.6113 4.02875 10.6899 3.98727 10.7578 3.99342C11.1651 4.03027 11.5706 4.08598 11.9778 4.12404C12.2819 4.15246 12.5876 4.163 12.8925 4.18292C13.4428 4.21888 13.9929 4.25804 14.5433 4.29134C14.7416 4.30333 14.9407 4.30232 15.1395 4.30725C15.146 4.32687 15.1525 4.34649 15.159 4.3661C14.3337 4.97429 13.5084 5.58247 12.6801 6.19933Z" fill="#342B84"/>
  <path d="M27.1574 12.9206C27.1768 12.475 27.1962 12.0293 27.2152 11.558C27.214 11.2176 27.2134 10.9028 27.2128 10.5881C27.2048 10.3609 27.196 10.1337 27.1892 9.90651C27.1866 9.81919 27.1885 9.73174 27.1864 9.63147C27.1952 9.24168 27.2106 8.86483 27.2157 8.48783C27.2278 7.58851 27.2339 6.6891 27.2446 5.78976C27.2518 5.17691 27.2607 4.56406 27.2733 3.9513C27.276 3.81987 27.298 3.68883 27.313 3.53908C27.4575 3.56513 27.6008 3.59468 27.7453 3.61619C27.9771 3.65069 28.2097 3.67914 28.4417 3.71143C29.0258 3.7927 29.6132 3.79884 30.2015 3.79631C30.4612 3.79519 30.7212 3.81083 30.9809 3.82273C31.34 3.83919 31.6989 3.85818 32.0578 3.87911C32.1107 3.8822 32.1628 3.90191 32.2163 3.91417C32.2163 5.01366 32.2163 6.11451 32.2163 7.22604C32.4452 7.23755 32.6802 7.2531 32.9154 7.2605C33.5681 7.28106 34.2209 7.29676 34.8736 7.31807C34.9906 7.32189 35.1069 7.34336 35.2352 7.358C35.1318 8.34069 35.0284 9.32365 34.9245 10.3114C33.9718 10.3114 33.0549 10.3114 32.1263 10.3114C32.1145 10.4444 32.0966 10.57 32.0936 10.6959C32.0814 11.1931 32.0715 11.6904 32.0653 12.1877C32.0542 13.0871 32.0366 13.9865 32.0425 14.8858C32.0445 15.2094 32.0809 15.5364 32.2554 15.8295C32.409 16.0875 32.6586 16.2013 32.9236 16.2387C33.2869 16.2899 33.6608 16.3205 34.0255 16.294C34.5955 16.2525 35.1623 16.1613 35.7289 16.0801C36.0262 16.0375 36.3201 15.9705 36.6159 15.9164C36.6514 15.9099 36.689 15.9155 36.75 15.9155C36.6291 17.2044 36.5086 18.4889 36.3859 19.7979C35.9743 19.8255 35.5605 19.8532 35.1348 19.8826C35.066 19.8742 35.0091 19.8546 34.9524 19.8554C34.4453 19.8629 33.9382 19.8761 33.431 19.883C33.1609 19.8867 32.8901 19.8906 32.6204 19.8776C32.262 19.8604 31.9043 19.8281 31.5465 19.7995C31.343 19.7833 31.1401 19.7603 30.9366 19.7439C30.9074 19.7415 30.8765 19.7591 30.8254 19.7651C30.7929 19.7563 30.7819 19.7459 30.7696 19.7439C30.4194 19.6871 30.0667 19.643 29.7194 19.5719C29.299 19.4859 28.9203 19.2975 28.5995 19.0094C28.1403 18.597 27.8595 18.0677 27.6557 17.492C27.3973 16.7622 27.2926 16.0008 27.2213 15.2357C27.1784 14.7754 27.176 14.311 27.1629 13.8483C27.1542 13.5393 27.1588 13.2298 27.1574 12.9206Z" fill="#F03C61"/>
  <path d="M32.7011 13.7047C32.8938 13.1493 33.256 12.7889 33.8213 12.6598C34.3516 12.5388 34.8412 12.6502 35.2336 13.0264C35.6725 13.4472 35.815 13.9833 35.6386 14.5703C35.4693 15.1336 35.0841 15.4953 34.5018 15.6092C33.9837 15.7106 33.5025 15.6139 33.1157 15.234C32.6888 14.8148 32.5573 14.3 32.7011 13.7047ZM33.316 13.5561C33.2028 13.7141 33.1478 13.8931 33.1402 14.0851C33.1242 14.4859 33.316 14.7799 33.6252 15.0081C33.8594 15.181 34.1229 15.2508 34.4034 15.167C35.1754 14.9363 35.4537 14.1138 34.9748 13.4628C34.763 13.1749 34.4526 13.0347 34.0991 13.0651C33.7751 13.093 33.5155 13.2674 33.316 13.5561Z" fill="#13355B"/>
  <path d="M34.8417 13.6357C34.8044 13.6869 34.7702 13.7302 34.7317 13.7693C34.57 13.9337 34.5565 13.9338 34.3724 13.7872C34.2074 13.6558 33.9292 13.7803 33.8568 14.0179C33.8032 14.1939 33.8907 14.3911 34.0685 14.4953C34.1904 14.5667 34.344 14.5304 34.4711 14.387C34.5338 14.3162 34.5935 14.3231 34.6639 14.36C34.6718 14.3642 34.6774 14.3725 34.6848 14.3779C34.9471 14.57 34.9518 14.6458 34.6707 14.819C34.3809 14.9976 34.0659 15.0084 33.7696 14.8397C33.4904 14.6807 33.3499 14.4219 33.3607 14.0941C33.3776 13.5789 33.8558 13.2155 34.3618 13.3246C34.5596 13.3672 34.735 13.4404 34.8417 13.6357Z" fill="#13355B"/>
</svg>