<svg id="img" xmlns="http://www.w3.org/2000/svg" width="13" height="12" viewBox="0 0 13 12" fill="none">
  <path d="M1.5 4.28454C1.5 3.68645 1.74119 3.31991 2.24032 3.04214L4.29494 1.89872C5.37155 1.29957 5.90986 1 6.5 1C7.09014 1 7.62845 1.29957 8.70506 1.89872L10.7597 3.04214C11.2588 3.31991 11.5 3.68645 11.5 4.28454C11.5 4.44672 11.5 4.52781 11.4823 4.59447C11.3892 4.94472 11.0719 5 10.7654 5H2.23464C1.92813 5 1.61076 4.94472 1.51771 4.59447C1.5 4.52781 1.5 4.44672 1.5 4.28454Z" stroke="#EBFEF7" stroke-width="1.5"/>
  <path d="M6.49795 3.5H6.50244" stroke="#EBFEF7" stroke-width="1.5" stroke-linecap="round" stroke-linejoin="round"/>
  <path d="M2.5 5V9.25M4.5 5V9.25" stroke="#EBFEF7" stroke-width="1.5"/>
  <path d="M8.5 5V9.25M10.5 5V9.25" stroke="#EBFEF7" stroke-width="1.5"/>
  <path d="M10 9.25H3C2.17157 9.25 1.5 9.92157 1.5 10.75C1.5 10.8881 1.61193 11 1.75 11H11.25C11.3881 11 11.5 10.8881 11.5 10.75C11.5 9.92157 10.8284 9.25 10 9.25Z" stroke="#EBFEF7" stroke-width="1.5"/>
</svg>