<svg id="img" xmlns="http://www.w3.org/2000/svg" width="15" height="12" viewBox="0 0 15 12" fill="none">
  <path d="M13.8623 5.36336C14.065 5.64758 14.1663 5.78968 14.1663 6.00004C14.1663 6.2104 14.065 6.3525 13.8623 6.63672C12.9516 7.91375 10.6258 10.6667 7.49967 10.6667C4.37353 10.6667 2.04774 7.91375 1.13704 6.63672C0.93435 6.3525 0.833008 6.2104 0.833008 6.00004C0.833008 5.78968 0.93435 5.64758 1.13703 5.36336C2.04774 4.08634 4.37353 1.33337 7.49967 1.33337C10.6258 1.33337 12.9516 4.08633 13.8623 5.36336Z" stroke="currentColor" stroke-width="1"/>
  <path d="M9.5 6C9.5 4.89543 8.60457 4 7.5 4C6.39543 4 5.5 4.89543 5.5 6C5.5 7.10457 6.39543 8 7.5 8C8.60457 8 9.5 7.10457 9.5 6Z" stroke="currentColor" stroke-width="1"/>
</svg>